<svg xmlns="http://www.w3.org/2000/svg" width="232" height="48" viewBox="0 0 232 48">
    <g fill="#FFF" fill-rule="evenodd">
        <path d="M213.385 13.772h4.718l-.028 7.44h1.025l2.693-7.44h5.105l-3.664 9.83 4.192 10.88h-5.523l-2.717-8.329h-1.11l.027 8.329h-4.718zM197.49 13.772h4.689v7.47h3.357v-7.47h4.687v20.71h-4.687v-8.3h-3.357v8.3h-4.689zM181.147 34.509h4.884l.584-3.58h3.354l.584 3.58h4.882l-4.105-20.706h-6.05l-4.133 20.706zm7.157-14.436l.888 6.302h-1.804l.916-6.302zM168.049 34.482h5.715c1.248 0 6.438-.53 6.465-6.805 0-5.267-4.021-6.186-6.63-6.186h-.86v-2.748h6.354v-4.97h-11.044v20.709zm4.69-4.165v-4.69h.693c.582 0 2.083.027 2.083 2.164 0 2.168-1.5 2.526-2.083 2.526h-.693zM149.433 13.772h4.08l3.603 4.886 3.638-4.886h4.05v20.71H160V21.85l-2.884 3.609-2.884-3.609v12.632h-4.799zM139.526 34.733c5.688 0 7.6-5.333 7.6-10.633 0-5.3-1.912-10.632-7.6-10.632-5.687 0-7.6 5.332-7.6 10.632s1.913 10.633 7.6 10.633m0-5.026c-1.696 0-2.552-1.969-2.552-5.607s.856-5.607 2.552-5.607c1.695 0 2.551 1.97 2.551 5.607 0 3.638-.856 5.607-2.551 5.607M118.022 34.482h4.8v-6.828h1.61c4.744 0 6.216-4.276 6.216-7 0-2.664-1.695-6.882-6.215-6.882h-6.411v20.71zm4.8-16.157h1.138c1.083 0 1.777.666 1.777 2.387 0 2.221-1.167 2.385-1.777 2.385h-1.138v-4.772zM102.179 13.772h13.096v20.71h-4.801V18.769h-3.495v15.713h-4.8zM92.329 21.797c.775 0 2.192-.5 2.192-2.027 0-1.803-1.636-1.917-2.11-1.917-.554 0-1.607.086-2.635.585l-.055-4.5c1.636-.415 2.802-.527 4.188-.527 3.943 0 5.69 2.75 5.69 5.44 0 2.612-1.5 4.19-2.969 4.803v.194c1.415.448 3.302 1.804 3.302 4.97 0 3.916-2.718 6.08-6.216 6.08-1.859-.026-3.08-.276-4.551-1.08l.084-4.306c1.36.585 2.275.64 3.191.64 1.554 0 2.163-1.141 2.163-1.97 0-1.168-.748-1.945-2.385-1.945h-1.942v-4.44h2.053zM73.463 34.482h4.855l.61-3.583h3.358l.582 3.583h4.854l-4.107-20.71h-6.047l-4.105 20.71zm7.13-14.463l.915 6.33h-1.832l.916-6.33zM64.169 13.772h9.845v5.163H69.05v15.547h-4.881z"/>
        <path fill-rule="nonzero" d="M1.2 24.013C1.2 36.575 11.435 46.8 24.016 46.8 36.572 46.8 46.8 36.571 46.8 24.013 46.8 11.432 36.576 1.2 24.016 1.2 11.43 1.2 1.2 11.428 1.2 24.013zm-1.2 0C0 10.765 10.768 0 24.016 0 37.234 0 48 10.765 48 24.013 48 37.234 37.234 48 24.016 48 10.768 48 0 37.234 0 24.013z"/>
        <path d="M14.153 9.644c5.798-2.58 12.875-2.413 16.674-.719 1.194.555 1.996.891 2.36 1.554-3.942-1.056-5.635-1.247-8.934-1.167-4.693.085-10.935 1.942-13.321 3.362l-1.05 1.306c3.436-2.033 9.847-3.36 13.4-3.473 3.968-.054 7.046.307 9.878 1.334-.169.72-.53 1.081-1.14 1.444-11.32-1.972-18.008.358-24.056 4.3l-.442 1.303c6.743-4.633 15.008-5.908 22.974-4.521-2.858 1-6.27 1.22-9.128 1.882-2.441.557-3.746.725-6.995 1.81-3.298 1.082-5.244 2.192-6.463 3.608-.583.669-1.028 1.444-1.14 2.275-.052.497-.025.945.143 1.39.133.388.44.777.775 1.165-.387.665-.725 1.529-.166 2.528.248.47.887.94 1.5 1.39l-.171.494c-.084.587-.164 1.279.224 1.86.664 1.055 1.469 1.751 2.745 2.418.196.86.498 1.553 1.165 2.166 1.414 1.302 4.58 3.801 10.21 4.19 4.22.28 7.243-.999 8.383-1.555l1.386-.72c-2.358.942-6.324 1.498-9.574 1.22-4.717-.388-8.93-3.469-9.458-4.358.164.109.387.193.578.278 5.524 2.664 12.654 4.11 21.783.39l.753-.723c-8.3 2.58-15.566 2.498-23.367-1.582.086-.388.253-.726.61-.998 1.997.883 3.914 1.61 6.245 2.079 2.72.5 5.825.613 8.38.5 2.582-.11 7.684-1.387 10.1-2.664.22-.193.33-.524.552-.748-4.713 1.716-10.32 2.525-13.704 2.272-3.302-.247-6.24-.638-10.127-2.413a23.249 23.249 0 0 1 2.301-.779c2.553.78 5.16 1.248 8.24 1.39 3.055.137 10.184-.998 14.678-3.717.141-.39.278-.809.278-.809s-6.243 3.335-13.316 3.335c-3.303 0-5.328-.475-6.825-.835 3.327-.61 7.519-1.112 12.232-2.304 2.386-.612 5.328-2.001 6.66-3.165 1.138-1.03 2.027-2.363 1.723-3.717-.06-.366-.557-1.222-1.168-1.53.583-.749.527-1.388.447-1.94-.058-.422-.253-.89-.499-1.305-.39-.505-.753-.896-1.503-1.337.113-.64.03-1.193-.222-1.72-.581-1-1.633-1.859-3.438-2.775-.083-.363-.307-.834-.693-1.305-2.273-2.249-5.993-3.331-9.13-3.388-.176-.004-.35-.005-.522-.005-3.669 0-6.614.824-8.437 1.675-.947.41-1.669.856-2.388 1.354zm20.946 3.03c.78.5 1.667 1.25 1.776 2.027-.83-.309-1.718-.637-2.578-.86.28-.306.692-.778.802-1.167zm-4.162 3.47c.947-.364 1.581-.75 2.14-1.196 1.244.331 2.41.75 3.359 1.165-.163.242-1.114 1.121-1.404 1.121a.088.088 0 0 1-.043-.008c-1.33-.363-2.494-.808-4.052-1.082zm7.467 1.108c.747.639.969 1.083.61 1.778-.497-.36-1.03-.556-1.61-.833.36-.278.694-.58 1-.945zm-23.058 2.556c3.468-1.03 7.52-1.803 11.184-2.248 2.52-.308 3.856-.027 6.243.61-6.133 1.638-12.184 2.162-17.956 3.857-4.653 1.352-5.887 3.055-5.906 3.055-2.057-2.832 5.073-4.857 6.435-5.274zm3.276 3.412c5.13-1.11 9.904-1.803 11.874-2.301 2.387-.587 4.052-1.14 5.213-1.693.056-.085 1.943.83 2.137 1.05-.636.53-1.522.976-2.496 1.305-2.913 1.056-8.211 2.165-11.013 2.589-2.83.469-5.194.828-8.324 1.657-1.806.475-3.028 1.03-3.916 1.614-.665-.39-1.054-.498-1.664-1 2.165-1.834 6.578-2.86 8.189-3.22zm-1.282 4.5c4.885-1.199 9.19-1.418 15.127-3.026 2.856-.752 4.937-1.56 6.243-2.554.192-.17.386-.308.582-.473 1.72 2.664-4.744 4.718-9.159 5.667a360.317 360.317 0 0 1-6.938 1.302c-2.88.471-3.829.722-5.825 1.304-.998-.39-1.998-.806-2.91-1.279.912-.388 1.912-.694 2.88-.94zm-6.767.886c-.195.167-.446.335-.638.528-.442-.252-.89-.802-.668-1.306.445.281.777.504 1.306.778zm2.025 1.03c.833.39 1.691.746 2.496 1.109-.584.22-1.11.472-1.55.75a76.06 76.06 0 0 1-1.971-1.113 8.253 8.253 0 0 1 1.025-.745zm-.33 2.913c-.196.278-.337.497-.417.778-.695-.584-1.03-1.056-1.001-1.585.471.306.943.555 1.417.807z"/>
    </g>
</svg>
